<svg width="58" height="58" viewBox="0 0 58 58" fill="none" xmlns="http://www.w3.org/2000/svg">
<g clip-path="url(#clip0_336_1137)">
<mask id="mask0_336_1137" style="mask-type:luminance" maskUnits="userSpaceOnUse" x="0" y="0" width="58" height="58">
<path d="M58 0H0V58H58V0Z" fill="white"/>
</mask>
<g mask="url(#mask0_336_1137)">
<path d="M23.1043 28.8551L6.5743 23.2001C4.5443 22.4751 3.5293 20.3001 3.5293 17.9801C3.5293 16.8201 3.8193 15.5151 4.3993 14.3551C5.5593 12.4701 8.0243 11.1651 10.1993 11.1651C11.5043 11.1651 12.6643 11.6001 13.6793 12.4701L26.1493 24.5051L22.2343 6.96013C22.0893 6.67013 22.0893 6.38013 22.0893 5.94513C22.0893 3.19013 25.1343 0.870117 28.9043 0.870117C32.8193 0.870117 35.8643 3.19013 35.8643 6.09013C35.8643 6.38013 35.8643 6.67013 35.7193 6.96013L31.6593 24.5051L44.1293 12.7601C45.1443 11.7451 46.4493 11.3101 47.8993 11.3101C49.9293 11.3101 52.1043 12.4701 53.4093 14.5001C54.1343 15.6601 54.4243 16.9651 54.4243 18.2701C54.4243 20.5901 53.2643 22.6201 51.2343 23.3451L34.7043 28.8551L50.9443 34.2201C53.1193 34.9451 54.2793 37.2651 54.2793 39.7301C54.2793 40.8901 53.9893 42.1951 53.4093 43.2101C52.1043 45.3851 49.7843 46.5451 47.6093 46.5451C46.3043 46.5451 45.1443 46.1101 44.1293 45.2401L31.6593 33.2051L35.7193 51.0401C35.8643 51.3301 35.8643 51.6201 35.8643 51.9101C35.8643 54.8101 32.8193 57.1301 28.9043 57.1301C25.1343 57.1301 22.0893 54.8101 22.0893 51.9101C22.0893 51.6201 22.0893 51.3301 22.2343 51.0401L26.1493 33.2051L13.8243 45.2401C12.8093 46.1101 11.6493 46.5451 10.4893 46.5451C8.1693 46.5451 5.8493 45.2401 4.5443 43.2101C3.9643 42.0501 3.6743 40.8901 3.6743 39.7301C3.6743 37.2651 4.8343 35.0901 7.0093 34.2201L23.1043 28.8551Z" fill="#FD7328"/>
</g>
</g>
<defs>
<clipPath id="clip0_336_1137">
<rect width="58" height="58" fill="white"/>
</clipPath>
</defs>
</svg>
